<svg width="68" height="36" viewBox="0 0 68 36" xmlns="http://www.w3.org/2000/svg"><title>CB216DA1-C2A1-42EA-8723-646C0BC0A240</title><g transform="translate(0 -64)" fill="#4C88FF" fill-rule="evenodd"><ellipse cx="2.828" cy="79.787" rx="2.828" ry="2.787"/><ellipse cx="11.828" cy="79.787" rx="2.828" ry="2.787"/><ellipse cx="11.828" cy="88.787" rx="2.828" ry="2.787"/><ellipse cx="11.828" cy="70.787" rx="2.828" ry="2.787"/><path d="M29.984 88.262c.33 0 .695-.111 1.061-.258l.659 3.713a8.813 8.813 0 0 1-3.403.698c-3.074 0-4.72-1.911-4.209-5.514l3.147-22.313L32.4 64l-3.183 22.865c-.147 1.029.146 1.397.768 1.397M33 91.483L35.708 72h5.122l-2.707 19.483z"/><path d="M49.981 70.623l-.256 1.727H54.3l-1.098 3.676h-3.989L47.274 89.96c-.842 6.138-4.026 8.234-8.6 9.96l-1.317-3.785c2.745-1.103 4.282-2.316 4.794-5.992l1.939-14.116h-3l.512-3.676h3l.294-2.021c.511-3.64 3.146-6.323 7.647-6.323 2.196 0 3.842.698 5.196 1.58l-1.83 3.161c-1.024-.661-2.122-.844-3-.844-1.793 0-2.671.882-2.928 2.72L35 0M63.013 87.769c.732 0 1.464-.22 2.342-.699l1.391 3.456a10.075 10.075 0 0 1-5.087 1.434c-4.06-.037-5.78-2.427-5.195-6.764l1.353-9.631H55l.476-3.676h3.074l1.207-4.375L64.111 67l-.695 4.889h4.464l-1.06 3.676h-3.88l-1.354 9.667c-.256 1.912.183 2.537 1.427 2.537"/></g></svg>